<?xml version="1.0" encoding="utf-8"?>
<!-- Generator: Adobe Illustrator 18.0.0, SVG Export Plug-In . SVG Version: 6.00 Build 0)  -->
<!DOCTYPE svg PUBLIC "-//W3C//DTD SVG 1.1//EN" "http://www.w3.org/Graphics/SVG/1.1/DTD/svg11.dtd">
<svg version="1.1" id="Layer_1" xmlns="http://www.w3.org/2000/svg" xmlns:xlink="http://www.w3.org/1999/xlink" x="0px" y="0px"
	 viewBox="0 0 100 100" enable-background="new 0 0 100 100" xml:space="preserve">
<path fill="#DCE5FD" d="M50,0C22.1,0.2-0.2,22.8,0,50.3C0.2,77.7,22.6,100,50,100h0.3c13.3-0.1,25.9-5.3,35.2-14.9
	S100.1,63,100,49.7C99.8,22.3,77.4,0,50,0z M71.2,69.8c-5.3,5.4-12.4,8.4-20.1,8.4c-14.9,0-27-11.6-28-26.2l-2.2,2.2
	c-1.2,1.2-3.3,1.2-4.6,0c-1.2-1.2-1.2-3.3,0-4.6L24,42c1.2-1.2,3.3-1.2,4.6,0l7.7,7.7c1.2,1.2,1.2,3.3,0,4.6
	c-0.7,0.7-1.4,0.9-2.3,0.9c-0.8,0-1.7-0.3-2.3-0.9l-2-2c1,11,10.3,19.6,21.6,19.6c5.9,0,11.3-2.3,15.4-6.6c1.2-1.2,3.3-1.3,4.6-0.1
	C72.4,66.4,72.4,68.4,71.2,69.8z M85.2,50.4l-7.7,7.7c-0.7,0.7-1.4,0.9-2.3,0.9c-0.8,0-1.7-0.3-2.3-0.9l-7.7-7.7
	c-1.2-1.2-1.2-3.3,0-4.6s3.3-1.2,4.6,0l2.1,2.1c-1-11-10.3-19.6-21.6-19.6c-6.2,0-12.1,2.7-16.2,7.3c-1.2,1.3-3.2,1.4-4.6,0.3
	c-1.3-1.2-1.4-3.2-0.3-4.6c5.3-6.1,13-9.6,21.1-9.6c14.9,0,27,11.6,28,26.2l2.2-2.2c1.2-1.2,3.3-1.2,4.6,0
	C86.4,47.1,86.4,49.1,85.2,50.4z"/>
</svg>
