<?xml version="1.0" encoding="utf-8"?>
<!-- Generator: Adobe Illustrator 18.0.0, SVG Export Plug-In . SVG Version: 6.00 Build 0)  -->
<!DOCTYPE svg PUBLIC "-//W3C//DTD SVG 1.1//EN" "http://www.w3.org/Graphics/SVG/1.1/DTD/svg11.dtd">
<svg version="1.1" id="Layer_1" xmlns="http://www.w3.org/2000/svg" xmlns:xlink="http://www.w3.org/1999/xlink" x="0px" y="0px"
	 viewBox="0 0 100 100" enable-background="new 0 0 100 100" xml:space="preserve">
<path fill="#DCE5FD" d="M50,0C22.4,0,0,22.4,0,50s22.4,50,50,50s50-22.4,50-50S77.6,0,50,0z M44.2,73.3H26.7V55.8l6.2,6.2l7.2-7.2
	l5.2,5.2L38,67.2L44.2,73.3z M40,45.2L32.8,38l-6.2,6.2V26.7h17.5L38,32.8l7.2,7.2L40,45.2z M73.3,73.3H55.8l6.2-6.2L54.8,60
	l5.2-5.2l7.2,7.2l6.2-6.2V73.3z M73.3,44.2L67.2,38L60,45.2L54.8,40l7.2-7.2l-6.2-6.2h17.5V44.2z"/>
</svg>
