<?xml version="1.0" encoding="utf-8"?>
<!-- Generator: Adobe Illustrator 18.0.0, SVG Export Plug-In . SVG Version: 6.00 Build 0)  -->
<!DOCTYPE svg PUBLIC "-//W3C//DTD SVG 1.1//EN" "http://www.w3.org/Graphics/SVG/1.1/DTD/svg11.dtd">
<svg version="1.1" id="Layer_1" xmlns="http://www.w3.org/2000/svg" xmlns:xlink="http://www.w3.org/1999/xlink" x="0px" y="0px"
	 viewBox="0 0 100 100" enable-background="new 0 0 100 100" xml:space="preserve">
<path fill="#DCE5FD" d="M50,0C22.4,0,0,22.4,0,50s22.4,50,50,50s50-22.4,50-50S77.6,0,50,0z M45.2,72.3L39,66.2l-7.2,7.2l-5.2-5.2
	l7.2-7.2l-6.2-6.2h17.5V72.3z M45.2,45.2H27.7l6.2-6.2l-7.2-7.2l5.2-5.2l7.2,7.2l6.2-6.2V45.2z M68.2,73.3L61,66.2l-6.2,6.2V54.8
	h17.5L66.2,61l7.2,7.2L68.2,73.3z M66.2,39l6.2,6.2H54.8V27.7l6.2,6.2l7.2-7.2l5.2,5.2L66.2,39z"/>
</svg>
